<svg width="60" height="54" viewBox="0 0 60 54" fill="none" xmlns="http://www.w3.org/2000/svg">
    <g clip-path="url(#clip0_2_907)">
    <path d="M51.8005 0H8.19956C6.27228 0 4.42393 0.711159 3.06114 1.97703C1.69835 3.2429 0.932739 4.95979 0.932739 6.75L0.932739 54H59.0673V6.75C59.0673 4.95979 58.3017 3.2429 56.9389 1.97703C55.5761 0.711159 53.7278 0 51.8005 0ZM54.2228 6.75V11.25H37.2668V4.5H51.8005C52.4429 4.5 53.059 4.73705 53.5133 5.15901C53.9676 5.58097 54.2228 6.15326 54.2228 6.75ZM27.5777 4.5H32.4223V18H27.5777V4.5ZM8.19956 4.5H22.7332V11.25H5.77729V6.75C5.77729 6.15326 6.03249 5.58097 6.48675 5.15901C6.94102 4.73705 7.55713 4.5 8.19956 4.5ZM5.77729 49.5V15.75H22.7332V22.5H37.2668V15.75H54.2228V49.5H5.77729ZM37.2668 40.5H49.3782V45H37.2668V40.5Z" fill="black"/>
    </g>
    <defs>
    <clipPath id="clip0_2_907">
    <rect width="58.1346" height="54" fill="white" transform="translate(0.932739)"/>
    </clipPath>
    </defs>
    </svg>
    