<svg
    width="22"
    height="22"
    viewBox="0 0 22 22"
    fill="none"
    xmlns="http://www.w3.org/2000/svg"
>
    <path
        d="M21.726 4.35187C21.6154 4.21939 21.477 4.11281 21.3207 4.03967C21.1644 3.96652 20.994 3.9286 20.8214 3.92857H5.30356L4.88419 1.61268C4.80185 1.16008 4.56326 0.750745 4.21004 0.456033C3.85682 0.161321 3.41136 -6.94063e-05 2.95134 2.23914e-08H1.17857C0.865994 2.23914e-08 0.56622 0.12417 0.345195 0.345195C0.12417 0.56622 0 0.865994 0 1.17857C0 1.49115 0.12417 1.79092 0.345195 2.01194C0.56622 2.23297 0.865994 2.35714 1.17857 2.35714H2.6233L5.06981 15.8125C5.1355 16.1699 5.27136 16.5107 5.46955 16.8152C5.11867 17.2258 4.87951 17.7198 4.77513 18.2497C4.67075 18.7796 4.70467 19.3274 4.87362 19.8404C5.04258 20.3533 5.34086 20.8141 5.7397 21.1782C6.13854 21.5423 6.62448 21.7975 7.15065 21.9192C7.67682 22.0409 8.22547 22.0249 8.74367 21.8728C9.26188 21.7208 9.73216 21.4377 10.1091 21.051C10.4861 20.6643 10.7571 20.187 10.896 19.6651C11.0348 19.1432 11.0368 18.5943 10.9018 18.0714H14.2411C14.0772 18.706 14.1158 19.3759 14.3515 19.9874C14.5873 20.599 15.0082 21.1215 15.5556 21.482C16.103 21.8424 16.7493 22.0227 17.4042 21.9977C18.0592 21.9726 18.6898 21.7435 19.2081 21.3422C19.7263 20.941 20.1061 20.3879 20.2944 19.7601C20.4827 19.1323 20.4701 18.4614 20.2582 17.8412C20.0464 17.221 19.646 16.6826 19.113 16.3012C18.58 15.9198 17.9411 15.7146 17.2857 15.7143H7.77561C7.68377 15.7142 7.59486 15.6819 7.52435 15.623C7.45383 15.5642 7.40617 15.4825 7.38963 15.3921L7.16178 14.1428H18.0812C18.7254 14.1428 19.3491 13.9167 19.8436 13.5039C20.3381 13.091 20.672 12.5177 20.787 11.8839L21.9813 5.31731C22.012 5.14751 22.0051 4.97303 21.9609 4.80621C21.9168 4.63939 21.8366 4.48429 21.726 4.35187ZM8.64285 18.8571C8.64285 19.0125 8.59676 19.1644 8.51043 19.2936C8.42409 19.4228 8.30138 19.5236 8.15781 19.583C8.01424 19.6425 7.85626 19.6581 7.70385 19.6277C7.55143 19.5974 7.41143 19.5226 7.30155 19.4127C7.19167 19.3028 7.11683 19.1628 7.08652 19.0104C7.0562 18.858 7.07176 18.7 7.13123 18.5564C7.1907 18.4129 7.2914 18.2902 7.42061 18.2038C7.54982 18.1175 7.70173 18.0714 7.85713 18.0714C8.06552 18.0714 8.26537 18.1542 8.41272 18.3015C8.56007 18.4489 8.64285 18.6487 8.64285 18.8571ZM17.2857 19.6428C17.1303 19.6428 16.9784 19.5968 16.8492 19.5104C16.72 19.4241 16.6193 19.3014 16.5598 19.1578C16.5003 19.0142 16.4848 18.8562 16.5151 18.7038C16.5454 18.5514 16.6202 18.4114 16.7301 18.3015C16.84 18.1917 16.98 18.1168 17.1324 18.0865C17.2848 18.0562 17.4428 18.0717 17.5864 18.1312C17.7299 18.1907 17.8527 18.2914 17.939 18.4206C18.0253 18.5498 18.0714 18.7017 18.0714 18.8571C18.0714 19.0655 17.9886 19.2654 17.8413 19.4127C17.6939 19.5601 17.4941 19.6428 17.2857 19.6428ZM18.4643 11.4636C18.4478 11.5534 18.4006 11.6347 18.3307 11.6935C18.2608 11.7523 18.1726 11.7849 18.0812 11.7857H6.73356L5.73374 6.28571H19.4091L18.4643 11.4636Z"
        fill="#5E5E5E"
    />
</svg>