<svg width="20" height="21" viewBox="0 0 20 21" fill="none" xmlns="http://www.w3.org/2000/svg">
    <path
        d="M1.0791 10.9321C1.0791 18.0431 6.65462 19.8211 9.44185 19.8211C10.8692 19.8211 12.9364 19.4641 14.7833 18.4311M17.6507 15.8211C18.4751 14.5751 19 12.9731 19 10.9321C19 6.40509 16.0115 3.17209 13.3096 1.31909C12.0889 0.481088 10.5667 1.40109 10.5667 2.83109V3.15409C10.5667 4.59609 9.92783 7.22809 8.1526 8.32309C7.24601 8.88209 6.26563 8.04509 6.156 7.02509L6.06534 6.18709C5.95992 5.21309 4.91418 4.62209 4.09404 5.21609C3.29458 5.79091 2.61831 6.5054 2.10165 7.32109"
        stroke="#DC1E0F" stroke-width="1.5" stroke-linecap="round" />
    <path
        d="M6.34998 16.2661C6.34998 19.1101 8.97381 19.8211 10.2852 19.8211C11.4343 19.8211 13.7292 19.1101 13.7292 16.2661C13.7292 15.1641 13.1072 14.4211 12.5063 13.9921C12.0868 13.6931 11.4975 13.9621 11.3531 14.4411C11.1654 15.0651 10.4855 15.4571 10.1387 14.8971C9.82242 14.3851 9.82242 13.6171 9.82242 13.1541C9.82242 12.5181 9.14775 12.1061 8.60485 12.4801C7.51589 13.2301 6.34998 14.5011 6.34998 16.2661Z"
        stroke="#DC1E0F" stroke-width="1.5" />
</svg>
    