<svg width="42" height="40" viewBox="0 0 42 40" fill="none" xmlns="http://www.w3.org/2000/svg">
    <path d="M28.4706 25.1765C28.8331 25.1767 29.1817 25.3163 29.4441 25.5665C29.7065 25.8167 29.8626 26.1583 29.88 26.5204C29.8974 26.8825 29.7749 27.2375 29.5377 27.5117C29.3006 27.7859 28.967 27.9584 28.6061 27.9934L28.4706 28H13.4118C13.0492 27.9998 12.7006 27.8602 12.4382 27.61C12.1758 27.3598 12.0198 27.0182 12.0023 26.6561C11.9849 26.2939 12.1075 25.939 12.3446 25.6648C12.5818 25.3905 12.9154 25.218 13.2762 25.1831L13.4118 25.1765H28.4706ZM28.4706 18.5882C28.845 18.5882 29.2041 18.737 29.4689 19.0017C29.7336 19.2665 29.8824 19.6256 29.8824 20C29.8824 20.3744 29.7336 20.7335 29.4689 20.9983C29.2041 21.263 28.845 21.4118 28.4706 21.4118H13.4118C13.0373 21.4118 12.6783 21.263 12.4135 20.9983C12.1487 20.7335 12 20.3744 12 20C12 19.6256 12.1487 19.2665 12.4135 19.0017C12.6783 18.737 13.0373 18.5882 13.4118 18.5882H28.4706ZM28.4706 12C28.845 12 29.2041 12.1487 29.4689 12.4135C29.7336 12.6783 29.8824 13.0373 29.8824 13.4118C29.8824 13.7862 29.7336 14.1453 29.4689 14.41C29.2041 14.6748 28.845 14.8235 28.4706 14.8235H13.4118C13.0373 14.8235 12.6783 14.6748 12.4135 14.41C12.1487 14.1453 12 13.7862 12 13.4118C12 13.0373 12.1487 12.6783 12.4135 12.4135C12.6783 12.1487 13.0373 12 13.4118 12H28.4706Z" fill="#5E5E5E"/>
    </svg>
    