<svg
width="22"
height="22"
viewBox="0 0 22 22"
fill="none"
xmlns="http://www.w3.org/2000/svg"
>
<path
  d="M10.9999 0C9.5554 0 8.125 0.284523 6.79042 0.837325C5.45584 1.39013 4.24321 2.20038 3.22176 3.22183C1.15886 5.28473 -6.10352e-05 8.08262 -6.10352e-05 11C-6.10352e-05 13.9174 1.15886 16.7153 3.22176 18.7782C4.24321 19.7996 5.45584 20.6099 6.79042 21.1627C8.125 21.7155 9.5554 22 10.9999 22C13.9173 22 16.7152 20.8411 18.7781 18.7782C20.841 16.7153 21.9999 13.9174 21.9999 11C21.9999 9.55546 21.7154 8.12506 21.1626 6.79048C20.6098 5.4559 19.7996 4.24327 18.7781 3.22183C17.7567 2.20038 16.544 1.39013 15.2095 0.837325C13.8749 0.284523 12.4445 0 10.9999 0ZM5.57694 17.908C6.04994 16.918 8.93194 15.95 10.9999 15.95C13.0679 15.95 15.9499 16.918 16.4229 17.908C14.8823 19.1356 12.9699 19.8028 10.9999 19.8C8.95394 19.8 7.07294 19.096 5.57694 17.908ZM17.9959 16.313C16.4229 14.399 12.6059 13.75 10.9999 13.75C9.39394 13.75 5.57694 14.399 4.00394 16.313C2.83374 14.7891 2.19957 12.9214 2.19994 11C2.19994 6.149 6.14894 2.2 10.9999 2.2C15.8509 2.2 19.7999 6.149 19.7999 11C19.7999 13.002 19.1179 14.85 17.9959 16.313ZM10.9999 4.4C8.86594 4.4 7.14994 6.116 7.14994 8.25C7.14994 10.384 8.86594 12.1 10.9999 12.1C13.1339 12.1 14.8499 10.384 14.8499 8.25C14.8499 6.116 13.1339 4.4 10.9999 4.4ZM10.9999 9.9C10.5623 9.9 10.1426 9.72616 9.83321 9.41673C9.52378 9.10729 9.34994 8.68761 9.34994 8.25C9.34994 7.81239 9.52378 7.39271 9.83321 7.08327C10.1426 6.77384 10.5623 6.6 10.9999 6.6C11.4375 6.6 11.8572 6.77384 12.1667 7.08327C12.4761 7.39271 12.6499 7.81239 12.6499 8.25C12.6499 8.68761 12.4761 9.10729 12.1667 9.41673C11.8572 9.72616 11.4375 9.9 10.9999 9.9Z"
  fill="#5E5E5E"
/>
</svg>