<svg version="1.0" xmlns="http://www.w3.org/2000/svg"
height="45px" width="71.05px" viewBox="0 0 146.000000 94.000000"
 preserveAspectRatio="xMidYMid meet">

<g transform="translate(0.000000,94.000000) scale(0.100000,-0.100000)"
fill="#000000" stroke="none">
<path d="M29 904 l-24 -26 -3 -289 -3 -289 24 -24 c13 -13 27 -41 30 -62 8
-46 35 -72 86 -80 29 -5 41 -14 59 -45 64 -110 264 -104 312 10 l12 31 209 0
c145 0 209 -3 209 -11 0 -22 43 -70 80 -89 60 -30 135 -27 191 9 26 16 51 42
58 60 12 28 18 31 58 31 71 0 110 22 121 67 12 52 8 313 -5 338 -6 11 -54 62
-106 113 l-94 92 -115 0 -115 0 -5 70 c-4 56 -10 76 -28 95 l-23 25 -452 0
-452 0 -24 -26z m901 -304 l0 -260 -425 0 -425 0 0 260 0 260 425 0 425 0 0
-260z m140 -35 c0 -114 9 -147 47 -164 13 -6 77 -11 143 -11 l120 0 0 -90 0
-90 -48 0 c-44 0 -49 2 -67 36 -31 57 -87 84 -178 84 l-77 0 0 170 0 170 30 0
30 0 0 -105z m223 17 c48 -48 87 -95 87 -105 0 -15 -13 -17 -115 -17 l-115 0
0 105 0 105 28 0 c21 0 47 -20 115 -88z m-1105 -347 c-7 -16 -19 -25 -35 -25
-18 0 -23 5 -23 25 0 22 4 25 35 25 33 0 34 -1 23 -25z m231 -1 c23 -19 31
-34 31 -59 0 -47 -8 -64 -41 -80 -47 -25 -96 -19 -130 14 -39 40 -39 82 0 122
39 39 96 40 140 3z m529 1 l-11 -25 -206 0 -206 0 -12 25 -11 25 229 0 229 0
-12 -25z m233 -4 c81 -82 -24 -192 -130 -136 -33 16 -41 33 -41 80 0 46 46 85
102 85 30 0 46 -7 69 -29z"/>
</g>
</svg>
